<svg id="svg" version="1.1" width="400" height="400" viewBox="0 0 400 400" xmlns="http://www.w3.org/2000/svg" xmlns:xlink="http://www.w3.org/1999/xlink" ><g id="svgg"><path id="path0" d="M130.482 192.518 C 119.809 193.651,113.793 200.256,113.761 210.875 C 113.725 222.686,120.908 229.521,133.375 229.537 C 139.755 229.546,144.633 228.210,147.728 225.605 L 148.500 224.956 148.500 216.103 L 148.500 207.250 141.125 207.250 L 133.750 207.250 133.750 211.250 L 133.750 215.250 136.625 215.250 L 139.500 215.250 139.500 217.844 C 139.500 220.656,139.471 220.721,138.000 221.230 C 132.006 223.306,126.230 220.429,124.878 214.695 C 122.123 203.010,130.766 196.807,142.212 202.256 C 143.359 202.803,144.328 203.250,144.366 203.250 C 144.403 203.250,145.425 201.827,146.637 200.087 L 148.840 196.924 148.148 196.373 C 144.510 193.472,136.976 191.828,130.482 192.518 M292.250 192.405 C 283.595 193.402,279.189 197.766,279.836 204.700 C 280.326 209.944,283.640 212.410,293.375 214.773 C 298.281 215.964,299.250 216.612,299.250 218.700 C 299.250 222.177,291.500 222.815,284.871 219.884 C 284.075 219.532,283.398 219.273,283.367 219.309 C 282.954 219.794,279.250 225.603,279.250 225.766 C 279.250 226.849,286.821 229.121,291.629 229.480 C 303.084 230.335,309.643 226.656,309.956 219.201 C 310.242 212.364,307.156 209.472,296.875 206.943 C 291.493 205.619,290.500 205.007,290.500 203.007 C 290.500 199.997,295.790 199.390,302.514 201.630 C 303.624 201.999,304.565 202.262,304.605 202.213 C 305.534 201.093,308.723 195.909,308.603 195.714 C 308.161 194.999,303.609 193.409,300.525 192.892 C 298.224 192.507,293.688 192.240,292.250 192.405 M159.178 210.625 C 155.084 220.181,151.670 228.168,151.591 228.375 C 151.465 228.702,152.167 228.750,157.036 228.747 L 162.625 228.744 163.875 225.623 L 165.125 222.503 172.125 222.503 L 179.125 222.502 180.378 225.564 L 181.631 228.625 187.219 228.692 C 192.477 228.756,192.797 228.734,192.638 228.317 C 192.545 228.074,189.140 220.084,185.072 210.563 L 177.674 193.250 172.148 193.250 L 166.622 193.250 159.178 210.625 M196.000 211.000 L 196.000 228.750 201.375 228.750 L 206.750 228.750 206.754 219.188 C 206.756 213.494,206.848 209.767,206.980 209.977 C 207.103 210.170,208.929 214.472,211.039 219.536 L 214.875 228.743 218.502 228.747 L 222.128 228.750 226.127 219.214 L 230.125 209.679 230.190 219.214 L 230.256 228.750 235.628 228.750 L 241.000 228.750 241.000 211.000 L 241.000 193.250 234.050 193.250 L 227.099 193.250 222.886 203.375 C 220.568 208.944,218.605 213.499,218.524 213.497 C 218.442 213.495,216.471 208.939,214.145 203.372 L 209.914 193.250 202.957 193.250 L 196.000 193.250 196.000 211.000 M246.750 211.000 L 246.750 228.750 261.250 228.750 L 275.750 228.750 275.750 224.750 L 275.750 220.750 266.617 220.750 L 257.484 220.750 257.555 217.813 L 257.625 214.875 265.938 214.809 L 274.250 214.743 274.250 210.872 L 274.250 207.000 265.875 207.000 L 257.500 207.000 257.500 204.125 L 257.500 201.250 266.375 201.250 L 275.250 201.250 275.250 197.250 L 275.250 193.250 261.000 193.250 L 246.750 193.250 246.750 211.000 M174.002 210.000 C 174.860 212.131,175.617 214.016,175.683 214.188 C 175.776 214.429,174.971 214.500,172.152 214.500 C 170.143 214.500,168.500 214.459,168.500 214.409 C 168.500 214.359,169.188 212.643,170.029 210.596 C 170.870 208.550,171.662 206.604,171.789 206.272 C 172.114 205.419,172.250 205.648,174.002 210.000 " stroke="none" fill="#050505" fill-rule="evenodd"></path><path id="path1" d="M0.000 200.000 L 0.000 400.000 200.000 400.000 L 400.000 400.000 400.000 200.000 L 400.000 0.000 200.000 0.000 L 0.000 0.000 0.000 200.000 M74.736 172.473 C 85.851 178.949,95.987 184.828,100.188 187.233 L 104.250 189.560 104.250 210.627 L 104.250 231.694 97.813 235.441 C 94.272 237.502,89.463 240.286,87.125 241.627 C 84.787 242.967,81.694 244.763,80.250 245.618 C 75.742 248.286,68.893 252.211,68.443 252.384 C 68.153 252.495,66.642 251.755,63.819 250.118 C 61.512 248.782,56.306 245.774,52.250 243.436 C 48.194 241.097,43.413 238.316,41.625 237.255 C 39.837 236.195,36.941 234.516,35.188 233.524 L 32.000 231.721 32.004 210.673 L 32.009 189.625 33.567 188.717 C 37.618 186.356,40.356 184.768,46.250 181.358 C 49.756 179.330,54.369 176.658,56.500 175.419 C 58.631 174.181,61.821 172.341,63.587 171.331 C 65.354 170.320,67.038 169.326,67.330 169.122 C 68.110 168.576,67.840 168.454,74.736 172.473 M65.750 182.964 C 58.496 184.532,54.983 193.195,59.147 199.248 C 59.637 199.961,60.002 200.579,59.957 200.622 C 59.912 200.664,55.319 203.003,49.750 205.819 L 39.625 210.939 39.625 218.502 L 39.625 226.064 53.741 233.140 L 67.856 240.216 81.991 233.136 L 96.125 226.056 96.125 218.505 L 96.125 210.955 86.026 205.857 C 74.189 199.883,75.529 200.786,76.469 199.420 C 81.812 191.655,74.867 180.994,65.750 182.964 M70.323 186.502 C 77.924 189.346,75.966 200.638,67.875 200.621 C 64.927 200.614,62.815 199.352,61.399 196.749 C 58.258 190.979,64.164 184.198,70.323 186.502 M139.030 192.617 C 142.550 193.234,146.498 194.829,148.484 196.437 L 149.050 196.895 146.750 200.210 C 145.484 202.033,144.376 203.491,144.287 203.450 C 144.198 203.409,143.268 202.952,142.220 202.435 C 138.263 200.484,133.164 199.895,130.072 201.032 C 123.042 203.616,122.675 217.669,129.555 220.779 C 131.276 221.556,136.738 221.663,138.313 220.950 L 139.250 220.526 139.250 217.888 L 139.250 215.250 136.369 215.250 L 133.488 215.250 133.556 211.188 L 133.625 207.125 141.063 207.059 L 148.500 206.993 148.500 216.120 L 148.500 225.247 147.438 226.022 C 140.456 231.115,126.719 231.006,120.021 225.805 C 111.528 219.210,111.340 203.353,119.673 196.446 C 123.940 192.909,131.810 191.353,139.030 192.617 M299.889 192.619 C 303.855 193.263,309.168 195.201,308.897 195.907 C 308.808 196.139,305.088 201.833,304.631 202.437 C 304.606 202.471,303.762 202.219,302.756 201.877 C 296.091 199.610,290.750 200.120,290.750 203.023 C 290.750 205.007,291.426 205.445,296.274 206.606 C 306.289 209.003,309.688 211.678,310.180 217.549 C 310.557 222.050,308.540 225.837,304.744 227.753 C 298.780 230.764,287.647 230.342,280.688 226.842 C 278.627 225.806,278.576 226.262,281.188 222.344 L 283.375 219.062 284.747 219.668 C 290.852 222.364,298.588 222.078,299.140 219.135 C 299.528 217.063,298.200 216.075,293.562 214.985 C 283.816 212.695,280.485 210.333,279.782 205.214 C 278.503 195.897,287.058 190.538,299.889 192.619 M339.125 193.338 C 344.824 194.977,347.626 198.089,347.596 202.750 C 347.576 205.940,346.260 208.185,343.717 209.366 L 342.559 209.904 343.740 210.323 C 349.851 212.493,350.459 221.843,344.745 225.776 C 341.356 228.109,338.787 228.496,326.688 228.498 L 317.000 228.500 317.000 210.608 L 317.000 192.715 327.313 192.811 C 336.136 192.893,337.842 192.969,339.125 193.338 M364.000 210.625 L 364.000 228.500 358.500 228.500 L 353.000 228.500 353.000 210.625 L 353.000 192.750 358.500 192.750 L 364.000 192.750 364.000 210.625 M185.254 210.625 C 189.378 220.250,192.816 228.322,192.893 228.563 C 193.024 228.971,192.648 229.000,187.317 229.000 L 181.601 229.000 180.345 225.938 L 179.090 222.875 172.122 222.875 L 165.155 222.875 163.925 225.938 L 162.695 229.000 156.946 229.000 C 152.449 229.000,151.223 228.932,151.317 228.688 C 151.383 228.516,154.838 220.414,158.994 210.683 L 166.551 192.991 172.152 193.058 L 177.754 193.125 185.254 210.625 M214.160 203.000 C 216.434 208.431,218.369 212.953,218.460 213.048 C 218.551 213.143,219.967 209.993,221.606 206.048 C 223.246 202.103,225.142 197.553,225.821 195.938 L 227.054 193.000 234.152 193.000 L 241.250 193.000 241.250 211.000 L 241.250 229.000 235.750 229.000 L 230.250 229.000 230.243 219.438 L 230.236 209.875 226.210 219.438 L 222.184 229.000 218.509 229.000 L 214.833 229.000 210.979 219.772 L 207.125 210.545 207.000 219.710 L 206.875 228.875 201.313 228.942 L 195.750 229.010 195.750 211.001 L 195.750 192.992 202.888 193.059 L 210.026 193.125 214.160 203.000 M275.500 197.125 L 275.500 201.250 266.625 201.250 L 257.750 201.250 257.750 204.000 L 257.750 206.750 266.000 206.750 L 274.250 206.750 274.250 210.875 L 274.250 215.000 266.000 215.000 L 257.750 215.000 257.750 217.875 L 257.750 220.750 266.750 220.750 L 275.750 220.750 275.750 224.875 L 275.750 229.000 261.250 229.000 L 246.750 229.000 246.750 211.000 L 246.750 193.000 261.125 193.000 L 275.500 193.000 275.500 197.125 M328.000 203.654 L 328.000 206.558 331.313 206.453 C 335.820 206.310,337.092 205.527,336.650 203.169 C 336.312 201.367,334.675 200.790,329.813 200.761 L 328.000 200.750 328.000 203.654 M69.750 207.782 C 69.750 214.174,69.777 214.083,67.865 214.083 C 65.781 214.083,65.750 213.989,65.750 207.753 C 65.750 201.440,65.494 202.125,67.854 202.125 L 69.750 202.125 69.750 207.782 M64.445 205.159 L 64.375 208.067 62.548 208.643 C 53.274 211.567,56.855 218.087,67.750 218.115 C 78.692 218.143,82.548 211.500,73.233 208.669 L 71.375 208.105 71.305 205.177 C 71.266 203.567,71.334 202.250,71.457 202.250 C 71.729 202.250,92.536 212.714,92.845 213.006 C 92.965 213.121,89.028 215.234,84.095 217.703 C 79.161 220.172,73.540 222.993,71.602 223.971 C 69.664 224.949,67.966 225.750,67.828 225.750 C 67.381 225.750,42.957 213.345,42.934 213.106 C 42.911 212.863,63.644 202.291,64.195 202.265 C 64.442 202.253,64.500 202.917,64.445 205.159 M170.419 210.066 C 169.500 212.298,168.749 214.209,168.749 214.313 C 168.750 214.416,170.269 214.500,172.125 214.500 C 173.981 214.500,175.500 214.405,175.500 214.290 C 175.500 214.084,172.303 206.220,172.162 206.079 C 172.123 206.039,171.338 207.834,170.419 210.066 M328.000 217.641 L 328.000 220.574 331.807 220.397 C 336.786 220.165,337.750 219.695,337.750 217.500 C 337.750 215.248,337.005 214.894,332.063 214.791 L 328.000 214.707 328.000 217.641 " stroke="none" fill="#fbfbfb" fill-rule="evenodd"></path><path id="path2" d="M63.112 171.721 C 60.356 173.318,56.924 175.317,55.487 176.162 C 54.051 177.007,50.063 179.323,46.625 181.308 C 43.188 183.293,38.491 186.018,36.188 187.362 L 32.000 189.807 32.000 210.650 L 32.000 231.494 32.937 232.082 C 33.453 232.406,34.381 232.952,35.000 233.296 C 36.649 234.213,43.955 238.430,49.125 241.448 C 51.600 242.894,55.481 245.142,57.750 246.445 C 60.019 247.749,63.225 249.604,64.875 250.568 C 66.525 251.532,67.939 252.355,68.016 252.397 C 68.094 252.438,68.994 251.992,70.016 251.404 C 74.074 249.070,89.544 240.101,92.250 238.514 C 93.831 237.586,97.174 235.656,99.679 234.226 L 104.234 231.625 104.242 210.702 L 104.250 189.779 101.813 188.343 C 100.472 187.553,98.756 186.553,98.000 186.121 C 95.682 184.798,87.006 179.770,84.625 178.370 C 82.780 177.285,72.384 171.263,69.000 169.319 L 68.125 168.817 63.112 171.721 M70.536 182.958 C 77.744 184.956,80.914 193.244,76.802 199.336 C 75.860 200.733,74.686 199.945,86.563 205.896 L 96.502 210.875 96.438 218.500 L 96.375 226.125 82.875 232.937 C 75.450 236.684,69.029 239.905,68.605 240.094 C 67.848 240.433,67.607 240.324,53.544 233.282 L 39.252 226.125 39.252 218.500 L 39.251 210.875 48.938 206.006 C 54.266 203.327,58.867 200.988,59.162 200.806 L 59.700 200.475 58.849 199.212 C 53.494 191.254,61.300 180.397,70.536 182.958 M65.721 186.580 C 58.015 189.464,59.719 200.366,67.875 200.366 C 75.194 200.366,77.672 190.644,71.245 187.146 C 69.675 186.292,67.175 186.036,65.721 186.580 M317.000 210.625 L 317.000 228.500 325.938 228.499 C 337.775 228.498,341.042 228.047,344.299 225.965 C 350.342 222.103,349.965 212.783,343.669 210.379 L 342.477 209.923 343.801 209.212 C 348.873 206.487,348.818 198.833,343.702 195.437 C 340.347 193.210,337.250 192.752,325.563 192.751 L 317.000 192.750 317.000 210.625 M353.250 210.625 L 353.250 228.500 358.625 228.500 L 364.000 228.500 364.000 210.625 L 364.000 192.750 358.625 192.750 L 353.250 192.750 353.250 210.625 M334.594 201.022 C 336.046 201.425,336.750 202.254,336.750 203.558 C 336.750 205.904,335.586 206.500,331.008 206.500 L 327.750 206.500 327.750 203.625 L 327.750 200.750 330.688 200.751 C 332.303 200.752,334.061 200.874,334.594 201.022 M66.000 207.755 C 66.000 213.916,65.987 213.875,67.934 213.875 C 69.364 213.875,69.673 213.452,69.606 211.578 C 69.578 210.779,69.543 208.377,69.528 206.240 L 69.500 202.354 67.750 202.338 L 66.000 202.322 66.000 207.755 M53.430 207.799 C 47.686 210.698,43.017 213.094,43.055 213.124 C 43.466 213.448,67.603 225.497,67.825 225.489 C 67.990 225.482,73.666 222.697,80.438 219.298 L 92.750 213.119 82.361 207.872 C 76.647 204.986,71.866 202.588,71.736 202.542 C 71.597 202.493,71.500 203.595,71.500 205.217 L 71.500 207.976 72.438 208.237 C 72.953 208.380,73.470 208.498,73.587 208.499 C 73.964 208.501,75.596 209.322,76.689 210.059 C 81.703 213.439,76.407 218.500,67.857 218.500 C 56.376 218.500,53.038 210.447,63.563 208.141 L 64.250 207.990 64.250 205.245 C 64.250 203.735,64.166 202.507,64.063 202.515 C 63.959 202.523,59.175 204.901,53.430 207.799 M335.278 214.749 C 337.068 215.080,337.750 215.834,337.750 217.480 C 337.750 219.941,336.498 220.500,330.988 220.500 L 327.750 220.500 327.750 217.667 C 327.750 216.108,327.825 214.758,327.917 214.667 C 328.176 214.408,333.772 214.470,335.278 214.749 " stroke="none" fill="#64cbe7" fill-rule="evenodd"></path><path id="path3" d="M69.602 206.250 C 69.602 208.519,69.640 209.447,69.686 208.313 C 69.732 207.178,69.732 205.322,69.686 204.188 C 69.640 203.053,69.602 203.981,69.602 206.250 " stroke="none" fill="#9bbdc6" fill-rule="evenodd"></path><path id="path4" d="M169.299 193.186 C 170.769 193.231,173.244 193.231,174.799 193.187 C 176.353 193.143,175.150 193.107,172.125 193.107 C 169.100 193.106,167.828 193.142,169.299 193.186 M199.453 193.187 C 201.420 193.229,204.570 193.229,206.453 193.187 C 208.335 193.144,206.725 193.110,202.875 193.110 C 199.025 193.110,197.485 193.145,199.453 193.187 M230.703 193.187 C 232.670 193.229,235.820 193.229,237.703 193.187 C 239.585 193.144,237.975 193.110,234.125 193.110 C 230.275 193.110,228.735 193.145,230.703 193.187 M253.812 193.187 C 257.766 193.226,264.234 193.226,268.188 193.187 C 272.141 193.149,268.906 193.117,261.000 193.117 C 253.094 193.117,249.859 193.149,253.812 193.187 M257.613 204.125 L 257.625 206.875 266.000 206.880 L 274.375 206.885 266.071 206.814 L 257.766 206.743 257.683 204.059 L 257.600 201.375 257.613 204.125 M257.595 217.875 C 257.596 219.525,257.636 220.167,257.685 219.303 C 257.734 218.438,257.734 217.088,257.684 216.303 C 257.635 215.517,257.595 216.225,257.595 217.875 " stroke="none" fill="#848484" fill-rule="evenodd"></path><path id="path5" d="M241.118 211.000 C 241.118 220.831,241.149 224.853,241.187 219.938 C 241.225 215.022,241.225 206.978,241.187 202.063 C 241.149 197.147,241.118 201.169,241.118 211.000 M261.813 214.937 C 264.116 214.978,267.884 214.978,270.188 214.937 C 272.491 214.896,270.606 214.862,266.000 214.862 C 261.394 214.862,259.509 214.896,261.813 214.937 M310.058 218.500 C 310.058 218.981,310.109 219.178,310.172 218.938 C 310.235 218.697,310.235 218.303,310.172 218.063 C 310.109 217.822,310.058 218.019,310.058 218.500 M131.563 229.672 C 131.803 229.735,132.197 229.735,132.438 229.672 C 132.678 229.609,132.481 229.558,132.000 229.558 C 131.519 229.558,131.322 229.609,131.563 229.672 M292.440 229.677 C 292.751 229.737,293.201 229.734,293.440 229.672 C 293.679 229.609,293.425 229.560,292.875 229.563 C 292.325 229.566,292.129 229.617,292.440 229.677 M295.563 229.672 C 295.803 229.735,296.197 229.735,296.438 229.672 C 296.678 229.609,296.481 229.558,296.000 229.558 C 295.519 229.558,295.322 229.609,295.563 229.672 " stroke="none" fill="#7c7c7c" fill-rule="evenodd"></path><path id="path6" d="M70.000 169.862 C 70.000 169.931,70.338 170.162,70.750 170.375 C 71.162 170.588,71.500 170.707,71.500 170.638 C 71.500 170.569,71.162 170.338,70.750 170.125 C 70.338 169.912,70.000 169.793,70.000 169.862 M67.316 182.679 C 67.696 182.737,68.258 182.735,68.566 182.676 C 68.873 182.617,68.563 182.570,67.875 182.572 C 67.188 182.573,66.936 182.622,67.316 182.679 M63.360 183.639 C 62.883 184.021,62.883 184.024,63.375 183.798 C 63.650 183.671,64.044 183.505,64.250 183.429 C 64.574 183.308,64.572 183.287,64.235 183.270 C 64.021 183.259,63.627 183.425,63.360 183.639 M60.363 185.813 L 59.375 186.875 60.438 185.887 C 61.426 184.968,61.615 184.750,61.426 184.750 C 61.385 184.750,60.907 185.228,60.363 185.813 M75.250 185.875 C 75.716 186.356,76.154 186.750,76.223 186.750 C 76.292 186.750,75.966 186.356,75.500 185.875 C 75.034 185.394,74.596 185.000,74.527 185.000 C 74.458 185.000,74.784 185.394,75.250 185.875 M67.192 186.181 C 67.641 186.237,68.316 186.236,68.692 186.179 C 69.068 186.122,68.700 186.076,67.875 186.077 C 67.050 186.079,66.743 186.126,67.192 186.181 M62.609 188.313 L 61.875 189.125 62.688 188.391 C 63.445 187.706,63.615 187.500,63.422 187.500 C 63.379 187.500,63.013 187.866,62.609 188.313 M72.250 187.578 C 72.250 187.621,72.616 187.987,73.063 188.391 L 73.875 189.125 73.141 188.313 C 72.456 187.555,72.250 187.385,72.250 187.578 M60.577 193.375 C 60.579 194.200,60.626 194.507,60.681 194.058 C 60.737 193.609,60.736 192.934,60.679 192.558 C 60.622 192.182,60.576 192.550,60.577 193.375 M353.119 210.625 C 353.119 220.525,353.150 224.539,353.187 219.544 C 353.225 214.550,353.225 206.450,353.187 201.544 C 353.149 196.639,353.119 200.725,353.119 210.625 M62.000 197.828 C 62.000 197.871,62.366 198.237,62.813 198.641 L 63.625 199.375 62.891 198.563 C 62.206 197.805,62.000 197.635,62.000 197.828 M72.859 198.563 L 72.125 199.375 72.938 198.641 C 73.695 197.956,73.865 197.750,73.672 197.750 C 73.629 197.750,73.263 198.116,72.859 198.563 M67.192 200.681 C 67.641 200.737,68.316 200.736,68.692 200.679 C 69.068 200.622,68.700 200.576,67.875 200.577 C 67.050 200.579,66.743 200.626,67.192 200.681 M327.845 203.625 C 327.846 205.275,327.886 205.917,327.935 205.053 C 327.984 204.188,327.984 202.838,327.934 202.053 C 327.885 201.267,327.845 201.975,327.845 203.625 M332.690 200.927 C 333.001 200.987,333.451 200.984,333.690 200.922 C 333.929 200.859,333.675 200.810,333.125 200.813 C 332.575 200.816,332.379 200.867,332.690 200.927 M347.575 202.750 C 347.575 203.506,347.622 203.816,347.679 203.438 C 347.736 203.059,347.736 202.441,347.679 202.063 C 347.622 201.684,347.575 201.994,347.575 202.750 M65.862 202.319 C 65.795 202.494,65.773 205.053,65.813 208.006 L 65.885 213.375 65.943 207.831 C 65.995 202.789,66.040 202.276,66.438 202.172 C 66.848 202.065,66.847 202.056,66.430 202.029 C 66.185 202.013,65.929 202.143,65.862 202.319 M63.954 202.466 C 64.201 202.623,64.263 203.358,64.204 205.439 C 64.160 206.960,64.209 208.151,64.313 208.087 C 64.761 207.808,64.523 202.250,64.063 202.254 C 63.732 202.257,63.706 202.309,63.954 202.466 M71.303 205.188 L 71.357 208.125 71.437 205.313 C 71.480 203.766,71.576 202.500,71.650 202.500 C 71.723 202.500,72.029 202.619,72.329 202.764 C 72.856 203.019,72.858 203.014,72.390 202.639 C 71.356 201.811,71.247 202.067,71.303 205.188 M79.500 202.625 C 79.844 202.822,80.237 202.982,80.375 202.982 C 80.513 202.982,80.344 202.822,80.000 202.625 C 79.656 202.428,79.263 202.268,79.125 202.268 C 78.987 202.268,79.156 202.428,79.500 202.625 M82.750 204.115 C 82.750 204.184,83.200 204.469,83.750 204.750 C 84.300 205.031,84.750 205.204,84.750 205.135 C 84.750 205.066,84.300 204.781,83.750 204.500 C 83.200 204.219,82.750 204.046,82.750 204.115 M59.188 204.643 C 58.253 205.150,58.310 205.361,59.250 204.875 C 59.663 204.662,60.000 204.434,60.000 204.369 C 60.000 204.208,59.973 204.217,59.188 204.643 M75.521 204.343 C 75.778 204.573,77.250 205.250,77.250 205.138 C 77.250 204.994,75.864 204.250,75.596 204.250 C 75.497 204.250,75.464 204.292,75.521 204.343 M85.250 205.362 C 85.250 205.431,85.588 205.662,86.000 205.875 C 86.412 206.088,86.750 206.207,86.750 206.138 C 86.750 206.069,86.412 205.838,86.000 205.625 C 85.588 205.412,85.250 205.293,85.250 205.362 M137.453 207.187 C 139.558 207.229,142.933 207.229,144.953 207.187 C 146.973 207.145,145.250 207.111,141.125 207.111 C 137.000 207.111,135.348 207.145,137.453 207.187 M45.688 207.643 C 44.753 208.150,44.810 208.361,45.750 207.875 C 46.163 207.662,46.500 207.434,46.500 207.369 C 46.500 207.208,46.473 207.217,45.688 207.643 M75.750 209.569 C 75.750 209.617,76.116 209.924,76.563 210.251 C 77.065 210.619,77.240 210.679,77.021 210.409 C 76.688 209.999,75.750 209.379,75.750 209.569 M206.863 219.375 C 206.863 224.600,206.896 226.773,206.937 224.204 C 206.978 221.635,206.978 217.360,206.937 214.704 C 206.897 212.048,206.863 214.150,206.863 219.375 M39.550 210.800 C 39.211 211.139,39.103 225.879,39.438 226.087 C 39.541 226.150,39.594 222.811,39.555 218.666 C 39.491 211.777,39.522 211.102,39.915 210.815 C 40.152 210.642,40.234 210.500,40.098 210.500 C 39.962 210.500,39.715 210.635,39.550 210.800 M96.250 218.325 L 96.375 225.875 96.441 218.516 C 96.478 214.469,96.422 211.071,96.316 210.966 C 96.211 210.861,96.181 214.172,96.250 218.325 M327.858 214.829 C 327.789 215.009,327.769 216.387,327.813 217.891 L 327.894 220.625 327.947 217.695 L 328.000 214.765 331.313 214.687 L 334.625 214.609 331.305 214.555 C 328.753 214.513,327.955 214.576,327.858 214.829 M58.624 215.711 C 58.896 216.033,59.346 216.412,59.622 216.554 C 60.153 216.826,60.076 216.742,58.877 215.746 C 58.155 215.147,58.146 215.146,58.624 215.711 M139.342 218.000 C 139.342 219.444,139.384 220.034,139.434 219.313 C 139.485 218.591,139.485 217.409,139.434 216.688 C 139.384 215.966,139.342 216.556,139.342 218.000 M66.932 218.430 C 67.376 218.486,68.163 218.487,68.682 218.432 C 69.201 218.378,68.838 218.333,67.875 218.332 C 66.912 218.331,66.488 218.375,66.932 218.430 M333.066 220.429 C 333.446 220.487,334.008 220.485,334.316 220.426 C 334.623 220.367,334.313 220.320,333.625 220.322 C 332.938 220.323,332.686 220.372,333.066 220.429 M58.500 221.123 C 58.500 221.294,60.031 222.053,60.145 221.938 C 60.199 221.884,59.851 221.653,59.372 221.424 C 58.892 221.195,58.500 221.060,58.500 221.123 M168.703 222.687 C 170.670 222.729,173.820 222.729,175.703 222.687 C 177.585 222.644,175.975 222.610,172.125 222.610 C 168.275 222.610,166.735 222.645,168.703 222.687 M62.500 223.112 C 62.500 223.181,62.837 223.412,63.250 223.625 C 63.663 223.838,64.000 223.957,64.000 223.888 C 64.000 223.819,63.663 223.588,63.250 223.375 C 62.837 223.162,62.500 223.043,62.500 223.112 M73.250 237.500 C 72.769 237.763,72.465 237.984,72.575 237.990 C 72.840 238.003,74.250 237.270,74.250 237.119 C 74.250 236.955,74.235 236.961,73.250 237.500 M61.250 248.612 C 61.250 248.681,61.587 248.912,62.000 249.125 C 62.413 249.338,62.750 249.457,62.750 249.388 C 62.750 249.319,62.413 249.088,62.000 248.875 C 61.587 248.662,61.250 248.543,61.250 248.612 " stroke="none" fill="#cae0e6" fill-rule="evenodd"></path><path id="path7" d="" stroke="none" fill="#c4c4c4" fill-rule="evenodd"></path><path id="path8" d="M195.872 211.062 L 195.875 228.875 201.313 228.882 L 206.750 228.890 201.377 228.815 L 196.003 228.740 195.937 210.995 L 195.870 193.250 195.872 211.062 M275.352 197.250 C 275.352 199.519,275.390 200.447,275.436 199.313 C 275.482 198.178,275.482 196.322,275.436 195.188 C 275.390 194.053,275.352 194.981,275.352 197.250 M133.188 200.426 C 133.497 200.486,134.003 200.486,134.313 200.426 C 134.622 200.367,134.369 200.318,133.750 200.318 C 133.131 200.318,132.878 200.367,133.188 200.426 M294.438 200.426 C 294.747 200.486,295.253 200.486,295.563 200.426 C 295.872 200.367,295.619 200.318,295.000 200.318 C 294.381 200.318,294.128 200.367,294.438 200.426 M133.602 211.250 C 133.602 213.519,133.640 214.447,133.686 213.313 C 133.732 212.178,133.732 210.322,133.686 209.188 C 133.640 208.053,133.602 208.981,133.602 211.250 M113.575 211.000 C 113.575 211.756,113.622 212.066,113.679 211.688 C 113.736 211.309,113.736 210.691,113.679 210.313 C 113.622 209.934,113.575 210.244,113.575 211.000 M133.313 221.672 C 133.553 221.735,133.947 221.735,134.188 221.672 C 134.428 221.609,134.231 221.558,133.750 221.558 C 133.269 221.558,133.072 221.609,133.313 221.672 M151.467 228.818 C 151.573 228.923,154.127 228.979,157.143 228.942 L 162.625 228.874 156.950 228.750 C 153.828 228.681,151.361 228.712,151.467 228.818 M184.438 228.937 C 185.984 228.980,188.516 228.980,190.063 228.937 C 191.609 228.893,190.344 228.857,187.250 228.857 C 184.156 228.857,182.891 228.893,184.438 228.937 M216.688 228.936 C 217.684 228.983,219.316 228.983,220.313 228.936 C 221.309 228.888,220.494 228.849,218.500 228.849 C 216.506 228.849,215.691 228.888,216.688 228.936 M232.799 228.936 C 234.269 228.981,236.744 228.981,238.299 228.937 C 239.853 228.893,238.650 228.857,235.625 228.857 C 232.600 228.856,231.328 228.892,232.799 228.936 M253.937 228.937 C 257.959 228.976,264.541 228.976,268.563 228.937 C 272.584 228.899,269.294 228.867,261.250 228.867 C 253.206 228.867,249.916 228.899,253.937 228.937 " stroke="none" fill="#bcbcbc" fill-rule="evenodd"></path></g></svg>