<svg id="svg" version="1.1" width="400" height="400" viewBox="0 0 400 400" xmlns="http://www.w3.org/2000/svg" xmlns:xlink="http://www.w3.org/1999/xlink" ><g id="svgg"><path id="path0" d="M67.112 168.977 C 66.982 169.102,66.512 169.411,66.069 169.665 C 65.625 169.918,63.220 171.306,60.724 172.750 C 58.227 174.194,55.497 175.750,54.655 176.208 C 53.814 176.666,52.947 177.200,52.730 177.395 C 52.513 177.590,52.271 177.750,52.191 177.750 C 52.112 177.750,50.939 178.407,49.586 179.209 C 48.232 180.012,46.450 181.041,45.625 181.497 C 44.800 181.952,44.069 182.392,44.000 182.475 C 43.931 182.557,43.481 182.837,43.000 183.096 C 40.542 184.420,39.312 185.120,38.711 185.538 C 38.346 185.792,37.982 186.000,37.903 186.000 C 37.658 186.000,35.130 187.592,35.042 187.803 C 34.996 187.911,34.743 188.000,34.479 188.000 C 34.216 188.000,34.000 188.086,34.000 188.191 C 34.000 188.296,33.550 188.577,33.000 188.815 L 32.000 189.249 32.000 210.630 L 32.000 232.012 32.563 232.252 C 32.872 232.384,33.536 232.746,34.039 233.058 C 36.000 234.274,37.753 235.250,37.975 235.250 C 38.104 235.250,38.246 235.339,38.292 235.449 C 38.337 235.558,39.652 236.374,41.212 237.261 C 42.772 238.149,44.414 239.100,44.860 239.375 C 47.259 240.854,55.510 245.500,55.736 245.500 C 55.881 245.500,56.000 245.593,56.000 245.706 C 56.000 245.819,56.478 246.162,57.063 246.468 C 57.647 246.774,58.575 247.299,59.125 247.634 C 59.675 247.968,60.969 248.722,62.000 249.308 C 63.031 249.894,64.100 250.510,64.375 250.677 C 64.650 250.844,65.156 251.123,65.500 251.298 C 65.844 251.472,66.181 251.685,66.250 251.770 C 66.533 252.121,67.509 252.500,68.130 252.500 C 68.651 252.500,76.437 248.334,77.000 247.754 C 77.197 247.551,78.038 247.054,79.125 246.497 C 79.675 246.215,80.575 245.710,81.125 245.373 C 81.675 245.037,82.856 244.348,83.750 243.843 C 85.105 243.078,90.052 240.178,91.875 239.081 C 92.150 238.916,92.769 238.570,93.250 238.313 C 94.517 237.635,95.323 237.163,95.750 236.849 C 95.956 236.697,96.744 236.251,97.500 235.857 C 98.256 235.463,99.494 234.740,100.250 234.250 C 101.006 233.760,101.991 233.209,102.438 233.025 C 102.884 232.840,103.250 232.604,103.250 232.499 C 103.250 232.394,103.475 232.249,103.750 232.178 C 104.245 232.048,104.250 231.837,104.250 210.642 L 104.250 189.238 103.688 188.998 C 103.378 188.866,102.714 188.504,102.211 188.192 C 101.708 187.880,100.639 187.255,99.836 186.804 C 99.032 186.352,98.206 185.879,98.000 185.752 C 97.455 185.417,92.432 182.503,90.887 181.625 C 90.160 181.213,87.598 179.722,85.192 178.313 C 82.787 176.903,80.691 175.750,80.534 175.750 C 80.378 175.750,80.250 175.663,80.250 175.557 C 80.250 175.451,79.828 175.142,79.313 174.870 C 78.797 174.599,77.531 173.882,76.500 173.278 C 74.407 172.050,73.129 171.316,70.722 169.961 C 70.394 169.776,70.069 169.569,70.000 169.500 C 69.326 168.826,67.598 168.513,67.112 168.977 M70.823 182.968 C 78.120 184.991,80.972 193.658,76.444 200.051 C 76.052 200.604,75.014 200.015,86.438 205.723 L 96.500 210.751 96.500 218.466 L 96.500 226.181 82.188 233.377 L 67.875 240.573 53.559 233.403 L 39.243 226.233 39.309 218.462 L 39.375 210.691 49.436 205.658 C 59.260 200.744,59.874 200.372,59.149 199.770 C 58.956 199.610,58.510 198.870,58.157 198.125 C 54.125 189.609,61.772 180.458,70.823 182.968 M64.875 186.968 C 61.483 188.517,59.861 193.113,61.556 196.375 C 65.039 203.078,74.739 200.870,74.739 193.375 C 74.739 188.294,69.467 184.870,64.875 186.968 M317.000 210.625 L 317.000 228.529 327.813 228.439 C 339.628 228.342,339.821 228.321,343.181 226.757 C 350.454 223.372,350.619 211.832,343.419 210.106 L 342.713 209.936 343.669 209.507 C 349.715 206.790,348.921 197.574,342.375 194.479 C 339.128 192.943,338.824 192.909,327.438 192.811 L 317.000 192.720 317.000 210.625 M353.000 210.625 L 353.000 228.500 358.500 228.500 L 364.000 228.500 364.000 210.625 L 364.000 192.750 358.500 192.750 L 353.000 192.750 353.000 210.625 M335.250 201.438 C 336.838 202.231,337.083 204.542,335.689 205.583 C 334.864 206.199,333.275 206.466,330.313 206.485 L 328.000 206.500 328.000 203.750 L 328.000 201.000 331.188 201.000 C 333.721 201.001,334.554 201.090,335.250 201.438 M66.110 202.473 C 65.919 202.664,66.016 212.879,66.212 213.192 C 66.517 213.681,67.786 213.942,68.688 213.702 L 69.500 213.486 69.500 207.930 L 69.500 202.375 67.854 202.375 C 66.949 202.375,66.164 202.419,66.110 202.473 M53.824 207.708 C 48.159 210.560,43.462 212.955,43.387 213.030 C 43.312 213.104,48.791 215.958,55.563 219.371 L 67.875 225.576 80.125 219.377 C 86.862 215.968,92.408 213.152,92.449 213.119 C 92.490 213.086,87.793 210.681,82.012 207.774 L 71.500 202.488 71.500 205.197 L 71.500 207.905 72.799 208.238 C 82.847 210.814,79.181 218.500,67.904 218.500 C 56.518 218.500,52.791 210.563,63.063 208.189 L 64.250 207.914 64.250 205.207 C 64.250 203.718,64.222 202.505,64.188 202.511 C 64.153 202.517,59.490 204.856,53.824 207.708 M336.668 215.400 C 337.527 216.043,337.904 217.214,337.597 218.287 C 337.142 219.873,336.436 220.115,331.982 220.209 L 328.000 220.294 328.000 217.500 L 328.000 214.706 331.982 214.791 C 335.563 214.866,336.035 214.928,336.668 215.400 " stroke="none" fill="#5ccbe3" fill-rule="evenodd"></path><path id="path1" d="M65.250 183.074 C 58.000 185.151,55.004 193.466,59.306 199.571 C 60.058 200.639,60.181 200.560,49.528 205.875 L 39.506 210.875 39.566 218.475 L 39.625 226.076 53.734 233.190 L 67.844 240.305 81.984 233.170 L 96.125 226.035 96.176 218.455 L 96.227 210.875 85.989 205.750 C 80.357 202.931,75.750 200.589,75.750 200.545 C 75.750 200.501,76.084 199.979,76.492 199.386 C 81.964 191.433,74.397 180.453,65.250 183.074 M71.182 186.909 C 75.765 189.092,76.417 196.137,72.316 199.160 C 67.383 202.797,60.648 199.458,60.648 193.375 C 60.648 187.823,66.089 184.483,71.182 186.909 M69.750 207.782 C 69.750 214.170,69.789 214.042,67.867 214.042 C 65.765 214.042,65.750 213.997,65.750 207.753 C 65.750 201.441,65.494 202.125,67.855 202.125 L 69.750 202.125 69.750 207.782 M64.375 205.248 L 64.375 208.079 62.828 208.516 C 53.106 211.257,56.713 218.125,67.875 218.125 C 78.993 218.125,82.578 211.236,72.881 208.505 L 71.375 208.080 71.305 205.165 C 71.266 203.562,71.299 202.250,71.378 202.250 C 71.590 202.250,92.590 212.768,92.834 212.997 C 92.949 213.105,87.380 216.033,80.459 219.504 L 67.875 225.815 55.285 219.518 C 48.361 216.055,42.772 213.144,42.867 213.048 C 43.213 212.698,63.883 202.306,64.125 202.360 C 64.274 202.394,64.375 203.565,64.375 205.248 " stroke="none" fill="#fafbfb" fill-rule="evenodd"></path><path id="path2" d="M66.932 186.430 C 67.376 186.486,68.163 186.487,68.682 186.432 C 69.201 186.378,68.838 186.333,67.875 186.332 C 66.912 186.331,66.488 186.375,66.932 186.430 M72.000 187.578 C 72.000 187.621,72.366 187.987,72.813 188.391 L 73.625 189.125 72.891 188.313 C 72.206 187.555,72.000 187.385,72.000 187.578 M57.077 193.375 C 57.079 194.200,57.126 194.507,57.181 194.058 C 57.237 193.609,57.236 192.934,57.179 192.558 C 57.122 192.182,57.076 192.550,57.077 193.375 M74.813 193.375 C 74.816 193.925,74.867 194.121,74.927 193.810 C 74.987 193.499,74.984 193.049,74.922 192.810 C 74.859 192.571,74.810 192.825,74.813 193.375 M67.192 202.431 C 67.641 202.487,68.316 202.486,68.692 202.429 C 69.068 202.372,68.700 202.326,67.875 202.327 C 67.050 202.329,66.743 202.376,67.192 202.431 M69.607 207.750 C 69.607 210.844,69.643 212.109,69.687 210.563 C 69.730 209.016,69.730 206.484,69.687 204.938 C 69.643 203.391,69.607 204.656,69.607 207.750 " stroke="none" fill="#79c8dd" fill-rule="evenodd"></path><path id="path3" d="M67.192 182.681 C 67.641 182.737,68.316 182.736,68.692 182.679 C 69.068 182.622,68.700 182.576,67.875 182.577 C 67.050 182.579,66.743 182.626,67.192 182.681 M71.521 183.343 C 71.778 183.573,73.250 184.250,73.250 184.138 C 73.250 183.994,71.864 183.250,71.596 183.250 C 71.497 183.250,71.464 183.292,71.521 183.343 M74.990 185.563 C 76.026 186.666,76.250 186.865,76.250 186.677 C 76.250 186.637,75.716 186.103,75.063 185.490 L 73.875 184.375 74.990 185.563 M62.609 188.313 L 61.875 189.125 62.688 188.391 C 63.445 187.706,63.615 187.500,63.422 187.500 C 63.379 187.500,63.013 187.866,62.609 188.313 M60.572 193.375 C 60.573 194.063,60.622 194.314,60.679 193.934 C 60.737 193.554,60.735 192.992,60.676 192.684 C 60.617 192.377,60.570 192.688,60.572 193.375 M67.440 200.677 C 67.751 200.737,68.201 200.734,68.440 200.672 C 68.679 200.609,68.425 200.560,67.875 200.563 C 67.325 200.566,67.129 200.617,67.440 200.677 M65.917 202.167 C 65.686 202.398,65.706 213.193,65.938 213.337 C 66.041 213.401,66.093 210.970,66.053 207.935 C 65.997 203.643,66.053 202.371,66.303 202.212 C 66.486 202.096,66.508 202.006,66.354 202.004 C 66.205 202.002,66.008 202.075,65.917 202.167 M63.188 202.644 C 62.260 203.146,62.306 203.363,63.238 202.881 C 63.643 202.672,64.044 202.500,64.128 202.500 C 64.212 202.500,64.245 203.789,64.203 205.363 C 64.160 206.938,64.213 208.138,64.321 208.030 C 64.607 207.743,64.423 202.430,64.125 202.343 C 63.987 202.304,63.566 202.439,63.188 202.644 M71.250 205.110 C 71.250 206.683,71.334 208.023,71.438 208.086 C 71.541 208.150,71.625 206.863,71.625 205.226 C 71.625 203.589,71.541 202.250,71.438 202.250 C 71.334 202.250,71.250 203.537,71.250 205.110 M93.750 209.612 C 93.750 209.681,94.088 209.912,94.500 210.125 C 94.912 210.338,95.250 210.457,95.250 210.388 C 95.250 210.319,94.912 210.088,94.500 209.875 C 94.088 209.662,93.750 209.543,93.750 209.612 M39.309 218.282 C 39.255 225.318,39.285 225.967,39.688 226.282 C 40.074 226.585,40.089 226.579,39.816 226.229 C 39.590 225.939,39.489 223.791,39.437 218.229 L 39.367 210.625 39.309 218.282 M96.250 218.550 C 96.181 222.772,96.211 226.139,96.316 226.034 C 96.422 225.929,96.478 222.475,96.441 218.359 L 96.375 210.875 96.250 218.550 M77.237 215.438 L 76.375 216.375 77.313 215.513 C 78.185 214.712,78.365 214.500,78.174 214.500 C 78.132 214.500,77.710 214.922,77.237 215.438 M88.688 215.141 C 88.034 215.481,87.500 215.816,87.500 215.884 C 87.500 215.996,89.975 214.827,90.229 214.595 C 90.539 214.313,89.725 214.601,88.688 215.141 M86.000 216.500 C 85.519 216.763,85.215 216.984,85.325 216.990 C 85.590 217.003,87.000 216.270,87.000 216.119 C 87.000 215.955,86.985 215.961,86.000 216.500 M84.188 217.393 C 83.253 217.900,83.310 218.111,84.250 217.625 C 84.662 217.412,85.000 217.184,85.000 217.119 C 85.000 216.958,84.973 216.967,84.188 217.393 M64.500 218.273 C 64.844 218.370,66.362 218.448,67.875 218.446 C 71.331 218.441,70.815 218.307,66.875 218.187 C 65.225 218.136,64.156 218.175,64.500 218.273 M42.500 227.612 C 42.500 227.681,42.837 227.912,43.250 228.125 C 43.663 228.338,44.000 228.457,44.000 228.388 C 44.000 228.319,43.663 228.088,43.250 227.875 C 42.837 227.662,42.500 227.543,42.500 227.612 M44.271 228.593 C 44.528 228.823,46.000 229.500,46.000 229.388 C 46.000 229.244,44.614 228.500,44.346 228.500 C 44.247 228.500,44.214 228.542,44.271 228.593 M48.500 230.612 C 48.500 230.681,48.837 230.912,49.250 231.125 C 49.663 231.338,50.000 231.457,50.000 231.388 C 50.000 231.319,49.663 231.088,49.250 230.875 C 48.837 230.662,48.500 230.543,48.500 230.612 M50.271 231.593 C 50.528 231.823,52.000 232.500,52.000 232.388 C 52.000 232.244,50.614 231.500,50.346 231.500 C 50.247 231.500,50.214 231.542,50.271 231.593 M83.250 232.500 C 82.769 232.763,82.465 232.984,82.575 232.990 C 82.840 233.003,84.250 232.270,84.250 232.119 C 84.250 231.955,84.235 231.961,83.250 232.500 " stroke="none" fill="#b7d4dc" fill-rule="evenodd"></path><path id="path4" d="" stroke="none" fill="#81becc" fill-rule="evenodd"></path><path id="path5" d="M128.158 192.624 C 118.424 194.641,113.588 200.853,113.658 211.250 C 113.716 219.746,117.347 225.573,124.240 228.231 C 131.172 230.904,142.293 229.967,147.125 226.302 L 148.375 225.354 148.441 216.177 L 148.506 207.000 141.003 207.000 L 133.500 207.000 133.500 211.250 L 133.500 215.500 136.375 215.500 L 139.250 215.500 139.250 218.013 L 139.250 220.526 138.313 220.946 C 136.599 221.715,131.237 221.553,129.455 220.677 C 123.010 217.513,123.005 204.481,129.446 201.329 C 132.437 199.866,137.499 200.297,141.966 202.395 C 144.749 203.703,144.259 203.928,146.872 200.137 C 149.388 196.486,149.328 196.803,147.688 195.815 C 142.498 192.688,134.307 191.349,128.158 192.624 M289.375 192.621 C 282.412 194.156,278.760 198.981,279.747 205.342 C 280.528 210.375,284.210 212.962,293.500 215.003 C 298.185 216.033,299.770 217.311,298.970 219.413 C 297.840 222.382,290.571 222.234,283.608 219.101 C 283.254 218.942,278.928 225.451,279.096 225.889 C 279.803 227.731,287.542 229.622,294.375 229.621 C 305.382 229.619,310.084 226.297,310.113 218.500 C 310.138 211.888,306.544 208.820,296.071 206.511 C 292.015 205.616,290.750 204.817,290.750 203.147 C 290.750 200.147,295.978 199.589,302.619 201.881 C 303.682 202.248,304.638 202.453,304.744 202.337 C 305.228 201.801,309.000 195.988,309.000 195.775 C 309.000 195.449,306.250 194.174,304.136 193.522 C 300.167 192.296,292.868 191.850,289.375 192.621 M166.270 193.558 C 166.148 193.870,162.761 201.775,158.745 211.125 C 154.728 220.475,151.385 228.324,151.315 228.567 C 151.197 228.982,151.544 229.005,156.997 228.942 L 162.804 228.875 164.000 225.875 L 165.196 222.875 172.115 222.875 L 179.034 222.875 180.295 225.938 L 181.555 229.000 187.278 229.000 C 190.569 229.000,193.000 228.903,193.000 228.771 C 193.000 228.646,189.585 220.574,185.411 210.834 L 177.822 193.125 172.157 193.058 L 166.491 192.991 166.270 193.558 M195.750 210.996 L 195.750 229.000 201.372 229.000 L 206.994 229.000 207.059 219.853 L 207.125 210.706 209.357 216.041 C 210.584 218.975,212.312 223.093,213.196 225.194 L 214.803 229.013 218.551 228.944 L 222.299 228.875 226.212 219.541 L 230.125 210.207 230.191 219.603 L 230.256 229.000 235.753 229.000 L 241.250 229.000 241.250 210.996 L 241.250 192.992 234.087 193.059 L 226.923 193.125 222.787 203.063 C 220.511 208.528,218.588 212.997,218.512 212.994 C 218.437 212.991,216.510 208.519,214.230 203.057 L 210.085 193.125 202.917 193.059 L 195.750 192.992 195.750 210.996 M246.750 211.000 L 246.750 229.000 261.250 229.000 L 275.750 229.000 275.750 224.875 L 275.750 220.750 266.750 220.750 L 257.750 220.750 257.750 217.875 L 257.750 215.000 266.000 215.000 L 274.250 215.000 274.250 210.875 L 274.250 206.750 266.000 206.750 L 257.750 206.750 257.750 204.000 L 257.750 201.250 266.625 201.250 L 275.500 201.250 275.500 197.125 L 275.500 193.000 261.125 193.000 L 246.750 193.000 246.750 211.000 M173.847 210.190 C 174.756 212.425,175.500 214.309,175.500 214.377 C 175.500 214.445,173.969 214.500,172.098 214.500 C 168.963 214.500,168.709 214.466,168.861 214.063 C 169.355 212.747,172.122 206.040,172.155 206.079 C 172.176 206.104,172.938 207.954,173.847 210.190 " stroke="none" fill="#040404" fill-rule="evenodd"></path><path id="path6" d="" stroke="none" fill="#583084" fill-rule="evenodd"></path><path id="path7" d="" stroke="none" fill="#5c3004" fill-rule="evenodd"></path><path id="path8" d="" stroke="none" fill="#043404" fill-rule="evenodd"></path></g></svg>